# AST/ASF file generated using VICON BodyLanguage
# -----------------------------------------------
:version 1.10
:name VICON
:units
  mass 1.0
  length 0.45
  angle deg
:documentation
   .ast/.asf automatically generated from VICON data using
   VICON BodyBuilder and BodyLanguage model FoxedUp or BRILLIANT.MOD
:root
   order TX TY TZ RX RY RZ
   axis XYZ
   position 0 0 0  
   orientation 0 0 0 
:bonedata
  begin
     id 1 
     name lhipjoint
     direction 0.643824 -0.71708 0.266994 
     length 2.52133 
     axis 0 0 0  XYZ
  end
  begin
     id 2 
     name lfemur
     direction 0.34202 -0.939693 0  
     length 7.51824  
     axis 0 0 20  XYZ
    dof rx ry rz
    limits (-160.0 20.0)
           (-70.0 70.0)
           (-60.0 70.0)
  end
  begin
     id 3 
     name ltibia
     direction 0.34202 -0.939693 0   
     length 7.3685   
     axis 0 0 20   XYZ
    dof rx
    limits (-10.0 170.0)
  end
  begin
     id 4 
     name lfoot
     direction 0.105419 -0.289636 0.951314   
     length 2.20972   
     axis -90 7.62852e-016 20   XYZ
    dof rx rz
    limits (-45.0 90.0)
           (-70.0 20.0)
  end
  begin
     id 5 
     name ltoes
     direction 1.53549e-011 -4.21833e-011 1   
     length 1.10139   
     axis -90 7.62852e-016 20   XYZ
    dof rx
    limits (-90.0 20.0)
  end
  begin
     id 6 
     name rhipjoint
     direction -0.608823 -0.743445 0.276811   
     length 2.43192  
     axis 0 0 0  XYZ 
  end
  begin
     id 7 
     name rfemur
     direction -0.34202 -0.939693 0   
     length 7.69715   
     axis 0 0 -20   XYZ
    dof rx ry rz
    limits (-160.0 20.0)
           (-70.0 70.0)
           (-70.0 60.0)
  end
  begin
     id 8 
     name rtibia
     direction -0.34202 -0.939693 0   
     length 7.44924   
     axis 0 0 -20   XYZ
    dof rx
    limits (-10.0 170.0)
 end
 begin
     id 9 
     name rfoot
     direction -0.103614 -0.284677 0.953007   
     length 2.22623  
     axis -90 -7.62852e-016 -20   XYZ
    dof rx rz
    limits (-45.0 90.0)
           (-20.0 70.0)
  end
  begin
     id 10 
     name rtoes
     direction -1.53537e-011 -4.22026e-011 1   
     length 1.11   
     axis -90 -7.62852e-016 -20   XYZ
    dof rx
    limits (-90.0 20.0)
  end
  begin
     id 11 
     name lowerback
     direction -0.0101212 0.99662 -0.0815298   
     length 2.08277   
     axis 0 0 0   XYZ
    dof rx ry rz
    limits (-20.0 45.0)
           (-30.0 30.0)
           (-30.0 30.0)
  end
  begin
     id 12 
     name upperback
     direction 0.024314 0.999591 -0.0150645   
     length 2.08524   
     axis 0 0 0   XYZ
    dof rx ry rz
    limits (-20.0 45.0)
           (-30.0 30.0)
           (-30.0 30.0)
  end
  begin
     id 13 
     name thorax
     direction 0.0285959 0.999323 0.0231357   
     length 2.09645   
     axis 0 0 0   XYZ
    dof rx ry rz
    limits (-20.0 45.0)
           (-30.0 30.0)
           (-30.0 30.0)
  end
  begin
     id 14 
     name lowerneck
     direction -0.065512 0.979301 0.191515   
     length 1.63798   
     axis 0 0 0   XYZ
    dof rx ry rz
    limits (-20.0 45.0)
           (-30.0 30.0)
           (-30.0 30.0)
  end
  begin
     id 15 
     name upperneck
     direction 0.0498479 0.98191 -0.182667   
     length 1.68731   
     axis 0 0 0   XYZ
    dof rx ry rz
    limits (-20.0 45.0)
           (-30.0 30.0)
           (-30.0 30.0)
  end
  begin
     id 16
     name head
     direction 0.0230358 0.996257 -0.0833175  
     length 1.69785  
     axis 0 0 0   XYZ
    dof rx ry rz
    limits (-20.0 45.0)
           (-30.0 30.0)
           (-30.0 30.0)
  end
  begin
     id 17 
     name lclavicle
     direction 0.967963 0.201165 -0.150269  
     length 3.63976  
     axis 0 0 0   XYZ
    dof ry rz
    limits (-20.0 10.0)
           (0.0 20.0)
  end
  begin
     id 18 
     name lhumerus
     direction 1 -4.48954e-011 -2.92837e-028   
     length 5.32462   
     axis 180 -30 -90   XYZ
    dof rx ry rz
    limits (-60.0 90.0)
           (-90.0 90.0)
           (-90.0 90.0)
  end
  begin
     id 19
     name lradius
     direction 1 -4.48958e-011 -6.39511e-027   
     length 3.48402   
     axis 180 -30 -90   XYZ
    dof rx
    limits (-10.0 170.0)
  end
  begin
     id 20
     name lwrist
     direction 1 -4.48975e-011 -1.1413e-026   
     length 1.74201   
     axis 6.88575e-015 90 90   XYZ
    dof ry
    limits (-180.0 0.0)
 end
  begin
     id 21 
     name lhand
     direction 1 -4.48899e-011 -2.28192e-026   
     length 0.572476   
     axis 1.45643e-014 90 90   XYZ
    dof rx rz
    limits (-90.0 90.0)
           (-45.0 45.0)
  end
  begin
     id 22 
     name lfingers
     direction 1 -4.49155e-011 -4.5684e-026   
     length 0.461545   
     axis 2.91283e-014 90 90   XYZ
    dof rx
    limits (0.0 90.0)
  end
  begin
     id 23
     name lthumb
     direction 0.707107 -6.34943e-011 0.707107   
     length 0.662688   
     axis -90 45 -2.25915e-014   XYZ
    dof rx rz
    limits (-45.0 45.0)
           (-45.0 45.0)
  end
  begin
     id 24 
     name rclavicle
     direction -0.964103 0.264019 -0.0282629   
     length 3.54491  
     axis 0 0 0   XYZ 
    dof ry rz
    limits (-10.0 20.0)
           (-20.0 0.0)
  end
  begin
     id 25 
     name rhumerus
     direction -1 -4.48964e-011 -2.45032e-027  
     length 5.33589   
     axis 180 30 90   XYZ
    dof rx ry rz
    limits (-90.0 60.0)
           (-90.0 90.0)
           (-90.0 90.0)
  end
  begin
     id 26 
     name rradius
     direction -1 -4.48987e-011 -1.55093e-027   
     length 3.64134   
     axis 180 30 90   XYZ
    dof rx
    limits (-10.0 170.0)
  end
  begin
     id 27 
     name rwrist
     direction -1 -4.4897e-011 -1.14128e-026   
     length 1.82067   
     axis 6.88575e-015 -90 -90   XYZ
    dof ry
    limits (-180.0 0.0)
  end
  begin
     id 28
     name rhand
     direction -1 -4.49021e-011 -2.28301e-026   
     length 0.734811   
     axis 1.45643e-014 -90 -90   XYZ
    dof rx rz
    limits (-90.0 90.0)
           (-45.0 45.0)
  end
  begin
     id 29
     name rfingers
     direction -1 -4.48862e-011 -4.56319e-026   
     length 0.592424   
     axis 2.91283e-014 -90 -90   XYZ
    dof rx
    limits (0.0 90.0)
  end
  begin
     id 30
     name rthumb
     direction -0.707107 -6.34978e-011 0.707107   
     length 0.850605   
     axis -90 -45 2.25915e-014   XYZ
    dof rx rz
    limits (-45.0 45.0)
           (-45.0 45.0)
  end
:hierarchy
  begin
    root lhipjoint rhipjoint lowerback
    lhipjoint lfemur
    lfemur ltibia
    ltibia lfoot
    lfoot ltoes
    rhipjoint rfemur
    rfemur rtibia
    rtibia rfoot
    rfoot rtoes
    lowerback upperback
    upperback thorax
    thorax lowerneck lclavicle rclavicle
    lowerneck upperneck
    upperneck head
    lclavicle lhumerus
    lhumerus lradius
    lradius lwrist
    lwrist lhand lthumb
    lhand lfingers
    rclavicle rhumerus
    rhumerus rradius
    rradius rwrist
    rwrist rhand rthumb
    rhand rfingers
  end

#!OML:ASF F:\VICON\USERDATA\INSTALL\rory3\rory3.ASF
:FULLY-SPECIFIED
:DEGREES
202
root 0.0699071 17.8588 1.6369 14.788 -47.1229 -0.559
lowerback 8.29518 -0.68178 -3.6742
upperback 4.87372 -1.22457 3.08073
thorax 0.556324 -0.76916 5.36392
lowerneck -11.0875 -0.40645 -12.6054
upperneck 41.1126 1.58981 0.612694
head 16.747 -1.52727 2.69636
rclavicle 9.80008e-014 -5.04913e-014
rhumerus -35.4014 6.06742 -77.1043
rradius 26.8927
rwrist 45.7767
rhand -27.2615 -6.50948
rfingers 7.12502
rthumb -0.672645 -36.4882
lclavicle 9.80008e-014 -5.04913e-014
lhumerus -26.7407 1.02234 80.4985
lradius 45.5675
lwrist -1.37528
lhand -13.5902 21.4105
lfingers 7.12502
lthumb 12.5242 51.0151
rfemur -37.9441 -5.67833 5.61569
rtibia 36.0293
rfoot 6.53409 -4.79
rtoes 5.05095
lfemur -27.145 -5.51888 -11.9574
ltibia 24.5701
lfoot -9.02309 -8.75695
ltoes -13.8921
203
root -0.00892707 17.8414 1.57865 14.7804 -46.8294 -0.446143
lowerback 8.29144 -0.539362 -3.64002
upperback 4.91678 -1.0338 3.08264
thorax 0.57937 -0.674545 5.33197
lowerneck -10.967 -0.472756 -12.7248
upperneck 41.0187 1.43572 0.82527
head 16.6729 -1.56634 2.78803
rclavicle 3.69739e-014 9.14409e-015
rhumerus -35.7027 6.49187 -77.4831
rradius 26.8314
rwrist 45.6962
rhand -26.6145 -5.66029
rfingers 7.12502
rthumb -0.0477856 -35.64
lclavicle 3.69739e-014 9.14409e-015
lhumerus -27.0541 1.26775 80.4206
lradius 45.6286
lwrist -1.70678
lhand -13.6198 21.4696
lfingers 7.12502
lthumb 12.4957 51.076
rfemur -37.4547 -5.56938 5.63556
rtibia 36.0941
rfoot 6.39685 -3.28947
rtoes 6.74115
lfemur -27.3596 -5.67034 -11.6255
ltibia 24.8284
lfoot -9.20271 -8.74146
ltoes -14.2877
204
root -0.0901337 17.8234 1.51723 14.7182 -46.5038 -0.190589
lowerback 8.29824 -0.430221 -3.88333
upperback 4.90321 -0.904655 3.19437
thorax 0.554209 -0.615563 5.57984
lowerneck -10.8419 -0.519533 -12.93
upperneck 40.9622 1.36967 0.93549
head 16.6171 -1.59978 2.86261
rclavicle 2.3059e-014 -3.73715e-014
rhumerus -36.038 7.18777 -77.7364
rradius 26.7827
rwrist 45.5055
rhand -26.0725 -3.7914
rfingers 7.12502
rthumb 0.475678 -33.7706
lclavicle 2.3059e-014 -3.73715e-014
lhumerus -27.4746 1.79573 80.4555
lradius 45.7638
lwrist -1.98244
lhand -13.3938 21.7339
lfingers 7.12502
lthumb 12.7136 51.3269
rfemur -36.9736 -5.50947 5.59667
rtibia 36.1319
rfoot 5.67782 -1.56123
rtoes 8.63637
lfemur -27.6502 -5.82008 -11.3994
ltibia 25.1098
lfoot -9.44658 -8.59818
ltoes -15.488
205
root -0.169369 17.8036 1.44485 14.7924 -45.9747 -0.0515519
lowerback 8.23923 -0.467752 -3.72468
upperback 4.93856 -0.941649 3.0999
thorax 0.622201 -0.631329 5.39061
lowerneck -10.8974 -0.48617 -12.8211
upperneck 41.0282 1.36621 1.05427
head 16.6603 -1.56916 2.89962
rclavicle 7.7526e-015 -1.19271e-014
rhumerus -36.2709 7.79121 -78.4189
rradius 26.7622
rwrist 45.1299
rhand -25.352 -1.52406
rfingers 7.12502
rthumb 1.17163 -31.5006
lclavicle 7.7526e-015 -1.19271e-014
lhumerus -27.6897 2.03064 80.1018
lradius 45.7134
lwrist -1.8185
lhand -13.5732 21.6726
lfingers 7.12502
lthumb 12.5406 51.2762
rfemur -36.4828 -5.39322 5.67526
rtibia 36.0951
rfoot 4.34666 -0.16798
rtoes 9.90094
lfemur -28.1004 -5.80157 -11.0716
ltibia 25.3844
lfoot -9.49184 -8.92493
ltoes -16.2599
206
root -0.249148 17.785 1.3734 14.7786 -45.4747 0.270358
lowerback 8.17772 -0.485824 -3.72153
upperback 4.94996 -0.962371 3.01397
thorax 0.668385 -0.640954 5.29848
lowerneck -11.0239 -0.473846 -12.7688
upperneck 41.1397 1.37572 1.13519
head 16.7489 -1.54983 2.93323
rclavicle -2.5842e-015 9.54166e-015
rhumerus -36.7336 8.55457 -79.0896
rradius 26.9971
rwrist 44.5867
rhand -24.8847 -0.0867738
rfingers 7.12502
rthumb 1.62296 -30.0603
lclavicle -2.5842e-015 9.54166e-015
lhumerus -27.8913 2.16414 79.836
lradius 45.6449
lwrist -1.35372
lhand -14.2204 21.5873
lfingers 7.12502
lthumb 11.9166 51.2281
rfemur -36.0502 -5.43752 5.69634
rtibia 35.9192
rfoot 2.99247 0.983244
rtoes 8.36041
lfemur -28.5859 -5.86242 -10.8783
ltibia 25.6455
lfoot -9.41379 -9.29302
ltoes -16.6039
207
root -0.329942 17.768 1.30662 14.5815 -45.0155 0.786342
lowerback 8.18629 -0.435999 -3.85568
upperback 4.94892 -0.90371 2.91834
thorax 0.656501 -0.611848 5.27042
lowerneck -11.079 -0.508141 -12.7813
upperneck 41.2398 1.291 1.29312
head 16.8213 -1.5665 2.99759
rclavicle 1.10922e-013 -3.53837e-014
rhumerus -37.2224 8.824 -79.5395
rradius 27.2222
rwrist 44.6266
rhand -24.458 0.732554
rfingers 7.12502
rthumb 2.03502 -29.2375
lclavicle 1.10922e-013 -3.53837e-014
lhumerus -28.0997 2.17413 79.6882
lradius 45.58
lwrist -1.06174
lhand -14.941 21.7306
lfingers 7.12502
lthumb 11.2217 51.4105
rfemur -35.5258 -5.59797 5.60345
rtibia 35.5806
rfoot 1.67408 1.99363
rtoes 6.53982
lfemur -28.9618 -5.94377 -10.8866
ltibia 25.8872
lfoot -9.37686 -9.52618
ltoes -17.1278
208
root -0.410109 17.7511 1.24321 14.525 -44.5157 0.995423
lowerback 8.26392 -0.413518 -3.78178
upperback 4.97982 -0.871274 2.93345
thorax 0.640712 -0.594544 5.24292
lowerneck -11.1209 -0.528601 -12.8877
upperneck 41.3039 1.26904 1.4041
head 16.8684 -1.57585 3.06652
rclavicle 5.56597e-015 3.97569e-016
rhumerus -37.2912 8.80399 -79.8203
rradius 27.0938
rwrist 45.1134
rhand -23.9488 1.32984
rfingers 7.12502
rthumb 2.52676 -28.6349
lclavicle 5.56597e-015 3.97569e-016
lhumerus -28.2992 2.16582 79.6684
lradius 45.4454
lwrist -0.554711
lhand -15.969 21.7921
lfingers 7.12502
lthumb 10.23 51.5233
rfemur -34.8793 -5.6061 5.71896
rtibia 35.0124
rfoot 0.293817 2.82247
rtoes 7.11795
lfemur -29.2451 -6.05868 -10.6304
ltibia 26.1179
lfoot -9.20683 -9.74046
ltoes -16.4542
209
root -0.488486 17.7349 1.16771 14.5947 -43.7784 1.10823
lowerback 8.36444 -0.525911 -3.69785
upperback 4.99048 -1.01719 3.10481
thorax 0.616199 -0.6683 5.38802
lowerneck -11.1347 -0.49265 -13.2531
upperneck 41.263 1.41141 1.48726
head 16.8386 -1.5548 3.19198
rclavicle -1.43523e-013 2.46493e-014
rhumerus -37.5208 9.53923 -80.1808
rradius 27.196
rwrist 45.2056
rhand -23.7436 1.66625
rfingers 7.12502
rthumb 2.72495 -28.2961
lclavicle -1.43523e-013 2.46493e-014
lhumerus -28.5505 2.41188 79.7598
lradius 45.3931
lwrist 0.365482
lhand -17.1115 21.7872
lfingers 7.12502
lthumb 9.12775 51.5696
rfemur -34.3181 -5.66444 5.98584
rtibia 34.3129
rfoot -1.05793 3.33434
rtoes 8.03415
lfemur -29.7319 -5.95553 -10.3208
ltibia 26.3678
lfoot -8.87862 -10.2933
ltoes -15.9622
210
root -0.57441 17.7268 1.10564 14.7335 -43.1941 0.855366
lowerback 8.4138 -0.687927 -3.30816
upperback 5.09852 -1.21065 3.33899
thorax 0.720978 -0.766934 5.42622
lowerneck -11.1195 -0.347581 -13.853
upperneck 41.2309 1.74632 1.64099
head 16.7851 -1.48367 3.41979
rclavicle 2.62396e-014 -3.33958e-014
rhumerus -38.0486 10.8991 -80.6716
rradius 27.6161
rwrist 44.7529
rhand -23.4408 2.25945
rfingers 7.12502
rthumb 3.01737 -27.6989
lclavicle 2.62396e-014 -3.33958e-014
lhumerus -28.9222 3.20653 79.7379
lradius 45.4129
lwrist 0.79461
lhand -17.7419 21.8724
lfingers 7.12502
lthumb 8.51945 51.6806
rfemur -33.6602 -5.6318 6.56955
rtibia 33.5981
rfoot -2.25013 3.70029
rtoes 8.48127
lfemur -29.929 -5.89567 -9.79158
ltibia 26.6363
lfoot -8.83819 -10.5349
ltoes -17.1328
211
root -0.655598 17.7137 1.03277 15.2843 -42.4915 0.427971
lowerback 8.31352 -0.810876 -2.66131
upperback 5.08826 -1.32845 3.49564
thorax 0.76521 -0.8146 5.22769
lowerneck -11.079 -0.247723 -14.1269
upperneck 41.2668 1.91188 1.80741
head 16.7729 -1.43376 3.57077
rclavicle 2.74323e-014 2.46493e-014
rhumerus -38.4094 11.6651 -81.2465
rradius 27.8123
rwrist 44.1691
rhand -22.884 2.89963
rfingers 7.12502
rthumb 3.55513 -27.0505
lclavicle 2.74323e-014 2.46493e-014
lhumerus -29.261 3.76936 79.5696
lradius 45.0658
lwrist -0.300143
lhand -18.931 20.5422
lfingers 7.12502
lthumb 7.37176 50.3938
rfemur -33.4129 -5.62713 7.38599
rtibia 33.0434
rfoot -3.47534 3.67098
rtoes 8.96828
lfemur -30.5263 -5.69696 -9.06298
ltibia 26.8932
lfoot -8.59364 -10.9324
ltoes -18.0148
212
root -0.728187 17.7006 0.949597 15.5576 -41.7289 0.481507
lowerback 8.32826 -0.757822 -2.17426
upperback 5.04845 -1.22242 3.41407
thorax 0.688368 -0.745598 4.85704
lowerneck -11.013 -0.350002 -13.9701
upperneck 41.3299 1.65442 1.97578
head 16.8111 -1.4889 3.58288
rclavicle 1.47101e-014 -4.21423e-014
rhumerus -38.7257 11.7331 -81.9309
rradius 27.9645
rwrist 43.4651
rhand -22.2802 3.2138
rfingers 7.12502
rthumb 4.13815 -26.7258
lclavicle 1.47101e-014 -4.21423e-014
lhumerus -29.2697 3.59515 79.3799
lradius 45.064
lwrist -0.522447
lhand -19.1884 20.6119
lfingers 7.12502
lthumb 7.12327 50.4721
rfemur -33.3254 -5.77707 7.89279
rtibia 32.716
rfoot -4.6404 3.48759
rtoes 9.01012
lfemur -31.2845 -5.59345 -8.66277
ltibia 27.1237
lfoot -7.9097 -11.3531
ltoes -17.2016
213
root -0.797526 17.6963 0.864162 15.3463 -41.0535 1.05223
lowerback 8.47359 -0.676719 -2.06535
upperback 5.04832 -1.1062 3.24678
thorax 0.589516 -0.679411 4.61403
lowerneck -10.7805 -0.482438 -13.9594
upperneck 41.314 1.34876 2.17067
head 16.7713 -1.57597 3.62046
rclavicle -7.95139e-015 1.59028e-014
rhumerus -39.103 11.907 -82.6609
rradius 28.1401
rwrist 42.6962
rhand -21.998 3.80143
rfingers 7.12502
rthumb 4.41066 -26.1326
lclavicle -7.95139e-015 1.59028e-014
lhumerus -29.1525 3.37965 79.1297
lradius 45.2284
lwrist -0.623493
lhand -18.9084 20.8874
lfingers 7.12502
lthumb 7.39355 50.7382
rfemur -33.2517 -6.14131 8.02311
rtibia 32.6571
rfoot -5.56215 3.38375
rtoes 9.51053
lfemur -31.9085 -5.67098 -8.6931
ltibia 27.3328
lfoot -7.02416 -11.5787
ltoes -15.9618
214
root -0.865719 17.6935 0.777586 14.8652 -40.5795 1.94705
lowerback 8.7017 -0.745231 -2.46978
upperback 5.08148 -1.22683 3.18949
thorax 0.519474 -0.746619 4.79833
lowerneck -10.727 -0.429492 -14.3284
upperneck 41.2948 1.50366 2.24611
head 16.7336 -1.55227 3.7436
rclavicle -2.34566e-014 -5.48646e-014
rhumerus -39.3177 13.0606 -83.4197
rradius 28.2519
rwrist 41.6196
rhand -21.7958 4.56954
rfingers 7.12502
rthumb 4.60592 -25.3604
lclavicle -2.34566e-014 -5.48646e-014
lhumerus -29.1636 4.16912 78.8582
lradius 45.4444
lwrist -0.668478
lhand -18.4659 20.8366
lfingers 7.12502
lthumb 7.82072 50.672
rfemur -33.2909 -6.43312 7.84784
rtibia 32.7643
rfoot -6.40649 3.15978
rtoes 11.101
lfemur -32.4117 -5.74958 -9.05515
ltibia 27.5486
lfoot -6.13164 -11.6451
ltoes -15.5282
215
root -0.93174 17.6927 0.689735 14.6207 -40.0859 2.62068
lowerback 8.86447 -0.861187 -2.7084
upperback 5.17317 -1.40117 3.14255
thorax 0.549293 -0.840862 4.90161
lowerneck -11.0491 -0.339554 -14.3904
upperneck 41.4005 1.79038 2.10826
head 16.8477 -1.46699 3.74612
rclavicle 2.54444e-014 2.14687e-014
rhumerus -39.2758 14.2472 -84.2904
rradius 28.3037
rwrist 40.2005
rhand -21.3815 5.01192
rfingers 7.12502
rthumb 5.006 -24.9089
lclavicle 2.54444e-014 2.14687e-014
lhumerus -29.136 4.89909 78.7113
lradius 45.732
lwrist 0.234416
lhand -18.1875 20.8595
lfingers 7.12502
lthumb 8.08934 50.6846
rfemur -33.4747 -6.46078 7.78477
rtibia 32.8936
rfoot -7.4648 2.55455
rtoes 12.1309
lfemur -33.0459 -5.71868 -9.25442
ltibia 27.8278
lfoot -5.22969 -11.8493
ltoes -17.0946
